<svg width="32" height="33" viewBox="0 0 32 33" fill="none" xmlns="http://www.w3.org/2000/svg">
<g clip-path="url(#clip0_52388_3919)">
<path d="M24 11.6518C25.0609 11.6518 26.0783 12.0732 26.8284 12.8234C27.5786 13.5735 28 14.5909 28 15.6518C28 16.7127 27.5786 17.7301 26.8284 18.4802C26.0783 19.2304 25.0609 19.6518 24 19.6518" stroke="#43641A" stroke-width="1.5" stroke-linecap="round" stroke-linejoin="round"/>
<path d="M13.334 11.6518V26.3185C13.334 26.6721 13.1935 27.0112 12.9435 27.2613C12.6934 27.5113 12.3543 27.6518 12.0007 27.6518H10.6673C10.3137 27.6518 9.97456 27.5113 9.72451 27.2613C9.47446 27.0112 9.33398 26.6721 9.33398 26.3185V19.6518" stroke="#43641A" stroke-width="1.5" stroke-linecap="round" stroke-linejoin="round"/>
<path d="M16 11.6518L22.032 6.62512C22.2073 6.47913 22.4205 6.38612 22.6468 6.35699C22.873 6.32786 23.1029 6.36382 23.3094 6.46065C23.5159 6.55748 23.6906 6.71118 23.8129 6.90372C23.9352 7.09626 24.0001 7.31968 24 7.54779V23.7558C24.0001 23.9839 23.9352 24.2073 23.8129 24.3999C23.6906 24.5924 23.5159 24.7461 23.3094 24.8429C23.1029 24.9397 22.873 24.9757 22.6468 24.9466C22.4205 24.9174 22.2073 24.8244 22.032 24.6785L16 19.6518H5.33333C4.97971 19.6518 4.64057 19.5113 4.39052 19.2613C4.14048 19.0112 4 18.6721 4 18.3185V12.9851C4 12.6315 4.14048 12.2924 4.39052 12.0423C4.64057 11.7923 4.97971 11.6518 5.33333 11.6518H16Z" stroke="#43641A" stroke-width="1.5" stroke-linecap="round" stroke-linejoin="round"/>
</g>
<defs>
<clipPath id="clip0_52388_3919">
<rect width="32" height="32" fill="white" transform="translate(0 0.985107)"/>
</clipPath>
</defs>
</svg>
