<svg width="32" height="32" viewBox="0 0 32 32" fill="none" xmlns="http://www.w3.org/2000/svg">
<g clip-path="url(#clip0_51960_3115)">
<path d="M5.33398 5.6C5.33398 5.45272 5.45338 5.33333 5.60065 5.33333H13.0673C13.2146 5.33333 13.334 5.45272 13.334 5.59999V13.0667C13.334 13.2139 13.2146 13.3333 13.0673 13.3333H5.60065C5.45338 13.3333 5.33398 13.2139 5.33398 13.0667V5.6Z" stroke="#29273A" stroke-width="1.66667" stroke-linecap="round" stroke-linejoin="round"/>
<path d="M18.666 5.6C18.666 5.45272 18.7854 5.33333 18.9327 5.33333H26.3993C26.5466 5.33333 26.666 5.45272 26.666 5.59999V13.0667C26.666 13.2139 26.5466 13.3333 26.3993 13.3333H18.9327C18.7854 13.3333 18.666 13.2139 18.666 13.0667V5.6Z" stroke="#29273A" stroke-width="1.66667" stroke-linecap="round" stroke-linejoin="round"/>
<path d="M5.33398 18.9333C5.33398 18.7861 5.45338 18.6667 5.60065 18.6667H13.0673C13.2146 18.6667 13.334 18.7861 13.334 18.9333V26.4C13.334 26.5473 13.2146 26.6667 13.0673 26.6667H5.60065C5.45338 26.6667 5.33398 26.5473 5.33398 26.4V18.9333Z" stroke="#29273A" stroke-width="1.66667" stroke-linecap="round" stroke-linejoin="round"/>
<path d="M18.666 22.6667C18.666 23.7275 19.0874 24.745 19.8376 25.4951C20.5877 26.2452 21.6051 26.6667 22.666 26.6667C23.7269 26.6667 24.7443 26.2452 25.4944 25.4951C26.2446 24.745 26.666 23.7275 26.666 22.6667C26.666 21.6058 26.2446 20.5884 25.4944 19.8382C24.7443 19.0881 23.7269 18.6667 22.666 18.6667C21.6051 18.6667 20.5877 19.0881 19.8376 19.8382C19.0874 20.5884 18.666 21.6058 18.666 22.6667Z" stroke="#29273A" stroke-width="1.66667" stroke-linecap="round" stroke-linejoin="round"/>
</g>
<defs>
<clipPath id="clip0_51960_3115">
<rect width="32" height="32" fill="white"/>
</clipPath>
</defs>
</svg>
