<svg width="50" height="50" viewBox="0 0 50 50" fill="none" xmlns="http://www.w3.org/2000/svg">
<path d="M25.2478 6.17975C32.6549 6.17975 38.6596 12.1844 38.6596 19.5916C38.6596 26.9987 32.6549 33.0034 25.2478 33.0034C17.8406 33.0034 11.8359 26.9987 11.8359 19.5916C11.8359 12.1844 17.8406 6.17975 25.2478 6.17975" stroke="white" stroke-width="3" stroke-linecap="round" stroke-linejoin="round"/>
<path d="M28.1797 22.2686C28.1797 22.4957 28.2699 22.7135 28.4305 22.8741C28.5911 23.0347 28.8089 23.1249 29.036 23.1249C29.2631 23.1249 29.4809 23.0347 29.6415 22.8741C29.8021 22.7135 29.8923 22.4957 29.8923 22.2686C29.8923 22.0415 29.8021 21.8237 29.6415 21.6631C29.4809 21.5025 29.2631 21.4123 29.036 21.4123C28.8089 21.4123 28.5911 21.5025 28.4305 21.6631C28.2699 21.8237 28.1797 22.0415 28.1797 22.2686Z" stroke="white" stroke-width="3" stroke-linecap="round" stroke-linejoin="round"/>
<path d="M20.8984 14.9899C20.8984 14.5356 21.0789 14.1 21.4001 13.7788C21.7212 13.4577 22.1569 13.2772 22.6111 13.2772C23.0653 13.2772 23.5009 13.4577 23.8221 13.7788C24.1433 14.1 24.3237 14.5356 24.3237 14.9899V22.6967C24.3237 23.378 24.5944 24.0315 25.0761 24.5132C25.5579 24.995 26.2113 25.2657 26.8927 25.2657C27.574 25.2657 28.2274 24.995 28.7092 24.5132C29.1909 24.0315 29.4616 23.378 29.4616 22.6967V22.2685" stroke="white" stroke-width="3" stroke-linecap="round" stroke-linejoin="round"/>
<path d="M21.7578 18.4151H26.8957" stroke="white" stroke-width="3" stroke-linecap="round" stroke-linejoin="round"/>
<path d="M14.9297 33.0035H35.5633" stroke="white" stroke-width="3" stroke-linecap="round" stroke-linejoin="round"/>
<path d="M37.628 24.75H39.6895C41.9686 24.75 43.8162 26.5976 43.8162 28.8767V39.1935C43.8162 41.4726 41.9686 43.3202 39.6895 43.3202H10.8025C8.52338 43.3202 6.67578 41.4726 6.67578 39.1935V28.8767C6.67578 26.5976 8.52338 24.75 10.8025 24.75H12.864" stroke="white" stroke-width="3" stroke-linecap="round" stroke-linejoin="round"/>
</svg>
