<svg width="22" height="22" viewBox="0 0 22 22" fill="none" xmlns="http://www.w3.org/2000/svg">
<path d="M11.0461 18.9626C12.7583 18.9625 14.4219 18.3938 15.7758 17.3457C17.1296 16.2977 18.0971 14.8297 18.5263 13.1722M11.0461 18.9626C9.33403 18.9625 7.67042 18.3938 6.31654 17.3457C4.96265 16.2977 3.99517 14.8297 3.566 13.1722M11.0461 18.9626C13.1788 18.9626 14.9081 15.504 14.9081 11.2387C14.9081 6.9734 13.1788 3.51481 11.0461 3.51481M11.0461 18.9626C8.9135 18.9626 7.18421 15.504 7.18421 11.2387C7.18421 6.9734 8.9135 3.51481 11.0461 3.51481M18.5263 13.1722C18.6851 12.5543 18.77 11.9064 18.77 11.2387C18.7721 9.91028 18.4301 8.60398 17.7771 7.44713M18.5263 13.1722C16.2376 14.441 13.663 15.1047 11.0461 15.1006C8.33249 15.1006 5.78275 14.4012 3.566 13.1722M3.566 13.1722C3.40358 12.5406 3.32169 11.8909 3.32227 11.2387C3.32227 9.86127 3.68272 8.56709 4.31522 7.44713M11.0461 3.51481C12.4161 3.51424 13.7615 3.87814 14.9443 4.56918C16.1271 5.26021 17.1048 6.2535 17.7771 7.44713M11.0461 3.51481C9.67624 3.51424 8.33084 3.87814 7.148 4.56918C5.96516 5.26021 4.98746 6.2535 4.31522 7.44713M17.7771 7.44713C15.9085 9.06565 13.5182 9.95494 11.0461 9.95138C8.47324 9.95138 6.12003 9.00735 4.31522 7.44713" stroke="#107C41" stroke-width="1.23582" stroke-linecap="round" stroke-linejoin="round"/>
</svg>
