<svg width="20" height="20" viewBox="0 0 20 20" fill="none" xmlns="http://www.w3.org/2000/svg">
<path d="M14.9993 10C14.5573 10 14.1334 10.1756 13.8208 10.4882C13.5083 10.8007 13.3327 11.2246 13.3327 11.6667C13.3327 12.1087 13.5083 12.5326 13.8208 12.8452C14.1334 13.1577 14.5573 13.3333 14.9993 13.3333C15.4414 13.3333 15.8653 13.1577 16.1779 12.8452C16.4904 12.5326 16.666 12.1087 16.666 11.6667C16.666 11.2246 16.4904 10.8007 16.1779 10.4882C15.8653 10.1756 15.4414 10 14.9993 10Z" stroke="#29273A" stroke-width="1.25" stroke-linecap="round" stroke-linejoin="round"/>
<path d="M15 3.33333L15 9.99999" stroke="#29273A" stroke-width="1.25" stroke-linecap="round" stroke-linejoin="round"/>
<path d="M15 13.3333L15 16.6667" stroke="#29273A" stroke-width="1.25" stroke-linecap="round" stroke-linejoin="round"/>
<path d="M9.99935 5C9.55732 5 9.1334 5.17559 8.82084 5.48816C8.50828 5.80072 8.33268 6.22464 8.33268 6.66667C8.33268 7.10869 8.50828 7.53262 8.82084 7.84518C9.1334 8.15774 9.55732 8.33333 9.99935 8.33333C10.4414 8.33333 10.8653 8.15774 11.1779 7.84518C11.4904 7.53262 11.666 7.10869 11.666 6.66667C11.666 6.22464 11.4904 5.80072 11.1779 5.48816C10.8653 5.17559 10.4414 5 9.99935 5Z" stroke="#29273A" stroke-width="1.25" stroke-linecap="round" stroke-linejoin="round"/>
<path d="M10 3.33333L10 4.99999" stroke="#29273A" stroke-width="1.25" stroke-linecap="round" stroke-linejoin="round"/>
<path d="M10 8.33333L10 16.6667" stroke="#29273A" stroke-width="1.25" stroke-linecap="round" stroke-linejoin="round"/>
<path d="M4.99935 12.5C4.55732 12.5 4.1334 12.6756 3.82084 12.9882C3.50828 13.3007 3.33268 13.7246 3.33268 14.1667C3.33268 14.6087 3.50828 15.0326 3.82084 15.3452C4.1334 15.6577 4.55732 15.8333 4.99935 15.8333C5.44138 15.8333 5.8653 15.6577 6.17786 15.3452C6.49042 15.0326 6.66602 14.6087 6.66602 14.1667C6.66602 13.7246 6.49042 13.3007 6.17786 12.9882C5.8653 12.6756 5.44138 12.5 4.99935 12.5Z" stroke="#29273A" stroke-width="1.25" stroke-linecap="round" stroke-linejoin="round"/>
<path d="M5 3.33333L5 12.5" stroke="#29273A" stroke-width="1.25" stroke-linecap="round" stroke-linejoin="round"/>
<path d="M5 15.8333L5 16.6667" stroke="#29273A" stroke-width="1.25" stroke-linecap="round" stroke-linejoin="round"/>
</svg>
