<svg width="20" height="20" viewBox="0 0 20 20" fill="none" xmlns="http://www.w3.org/2000/svg">
<g clip-path="url(#clip0_52781_4761)">
<path d="M6.66732 4.16667H5.00065C4.55862 4.16667 4.1347 4.34227 3.82214 4.65483C3.50958 4.96739 3.33398 5.39131 3.33398 5.83334V15.8333C3.33398 16.2754 3.50958 16.6993 3.82214 17.0119C4.1347 17.3244 4.55862 17.5 5.00065 17.5H9.74815" stroke="#29273A" stroke-width="1.5" stroke-linecap="round" stroke-linejoin="round"/>
<path d="M14.9993 10V5.83334C14.9993 5.39131 14.8238 4.96739 14.5112 4.65483C14.1986 4.34227 13.7747 4.16667 13.3327 4.16667H11.666" stroke="#29273A" stroke-width="1.5" stroke-linecap="round" stroke-linejoin="round"/>
<path d="M6.66602 4.16667C6.66602 3.72464 6.84161 3.30072 7.15417 2.98816C7.46673 2.67559 7.89065 2.5 8.33268 2.5H9.99935C10.4414 2.5 10.8653 2.67559 11.1779 2.98816C11.4904 3.30072 11.666 3.72464 11.666 4.16667C11.666 4.60869 11.4904 5.03262 11.1779 5.34518C10.8653 5.65774 10.4414 5.83333 9.99935 5.83333H8.33268C7.89065 5.83333 7.46673 5.65774 7.15417 5.34518C6.84161 5.03262 6.66602 4.60869 6.66602 4.16667Z" stroke="#29273A" stroke-width="1.5" stroke-linecap="round" stroke-linejoin="round"/>
<path d="M6.66602 9.16667H9.99935" stroke="#29273A" stroke-width="1.5" stroke-linecap="round" stroke-linejoin="round"/>
<path d="M6.66602 12.5H9.16602" stroke="#29273A" stroke-width="1.5" stroke-linecap="round" stroke-linejoin="round"/>
<path d="M11.666 14.5833C11.666 15.1359 11.8855 15.6658 12.2762 16.0565C12.6669 16.4472 13.1968 16.6667 13.7493 16.6667C14.3019 16.6667 14.8318 16.4472 15.2225 16.0565C15.6132 15.6658 15.8327 15.1359 15.8327 14.5833C15.8327 14.0308 15.6132 13.5009 15.2225 13.1102C14.8318 12.7195 14.3019 12.5 13.7493 12.5C13.1968 12.5 12.6669 12.7195 12.2762 13.1102C11.8855 13.5009 11.666 14.0308 11.666 14.5833Z" stroke="#29273A" stroke-width="1.5" stroke-linecap="round" stroke-linejoin="round"/>
<path d="M15.416 16.25L17.4993 18.3333" stroke="#29273A" stroke-width="1.5" stroke-linecap="round" stroke-linejoin="round"/>
</g>
<defs>
<clipPath id="clip0_52781_4761">
<rect width="20" height="20" fill="white"/>
</clipPath>
</defs>
</svg>
