<svg width="21" height="20" viewBox="0 0 21 20" fill="none" xmlns="http://www.w3.org/2000/svg">
    <g clip-path="url(#clip0_51964_9960)">
        <path
            d="M12.1665 6.66659V4.99992C12.1665 4.55789 11.9909 4.13397 11.6783 3.82141C11.3658 3.50885 10.9419 3.33325 10.4998 3.33325H4.6665C4.22448 3.33325 3.80055 3.50885 3.48799 3.82141C3.17543 4.13397 2.99984 4.55789 2.99984 4.99992V14.9999C2.99984 15.4419 3.17543 15.8659 3.48799 16.1784C3.80055 16.491 4.22448 16.6666 4.6665 16.6666H10.4998C10.9419 16.6666 11.3658 16.491 11.6783 16.1784C11.9909 15.8659 12.1665 15.4419 12.1665 14.9999V13.3333"
            stroke="#F42A41" stroke-width="1.04167" stroke-linecap="round"
            stroke-linejoin="round" />
        <path d="M8 10H17.5976C17.7461 10 17.8205 9.82048 17.7155 9.71548L15.5 7.5" stroke="#F42A41"
            stroke-width="1.04167" stroke-linecap="round" stroke-linejoin="round" />
        <path d="M15.5 12.5L18 10" stroke="#F42A41" stroke-width="1.04167" stroke-linecap="round"
            stroke-linejoin="round" />
    </g>
    <defs>
        <clipPath id="clip0_51964_9960">
            <rect width="20" height="20" fill="white" transform="translate(0.5)" />
        </clipPath>
    </defs>
</svg>
