<svg width="32" height="33" viewBox="0 0 32 33" fill="none" xmlns="http://www.w3.org/2000/svg">
<g clip-path="url(#clip0_52388_921)">
<path d="M5.33398 16.9851C5.33398 17.3387 5.47446 17.6779 5.72451 17.9279C5.97456 18.178 6.3137 18.3185 6.66732 18.3185C7.02094 18.3185 7.36008 18.178 7.61013 17.9279C7.86017 17.6779 8.00065 17.3387 8.00065 16.9851C8.00065 16.6315 7.86017 16.2924 7.61013 16.0423C7.36008 15.7923 7.02094 15.6518 6.66732 15.6518C6.3137 15.6518 5.97456 15.7923 5.72451 16.0423C5.47446 16.2924 5.33398 16.6315 5.33398 16.9851Z" stroke="#43641A" stroke-width="1.5" stroke-linecap="round" stroke-linejoin="round"/>
<path d="M14.666 16.9851C14.666 17.3387 14.8065 17.6779 15.0565 17.9279C15.3066 18.178 15.6457 18.3185 15.9993 18.3185C16.353 18.3185 16.6921 18.178 16.9422 17.9279C17.1922 17.6779 17.3327 17.3387 17.3327 16.9851C17.3327 16.6315 17.1922 16.2924 16.9422 16.0423C16.6921 15.7923 16.353 15.6518 15.9993 15.6518C15.6457 15.6518 15.3066 15.7923 15.0565 16.0423C14.8065 16.2924 14.666 16.6315 14.666 16.9851Z" stroke="#43641A" stroke-width="1.5" stroke-linecap="round" stroke-linejoin="round"/>
<path d="M24 16.9851C24 17.3387 24.1405 17.6779 24.3905 17.9279C24.6406 18.178 24.9797 18.3185 25.3333 18.3185C25.687 18.3185 26.0261 18.178 26.2761 17.9279C26.5262 17.6779 26.6667 17.3387 26.6667 16.9851C26.6667 16.6315 26.5262 16.2924 26.2761 16.0423C26.0261 15.7923 25.687 15.6518 25.3333 15.6518C24.9797 15.6518 24.6406 15.7923 24.3905 16.0423C24.1405 16.2924 24 16.6315 24 16.9851Z" stroke="#43641A" stroke-width="1.5" stroke-linecap="round" stroke-linejoin="round"/>
</g>
<defs>
<clipPath id="clip0_52388_921">
<rect width="32" height="32" fill="white" transform="translate(0 0.985107)"/>
</clipPath>
</defs>
</svg>
