<svg width="34" height="34" viewBox="0 0 34 34" fill="none" xmlns="http://www.w3.org/2000/svg">
<path d="M23.8691 11.2762V7.15115C23.8691 6.78648 23.7243 6.43674 23.4665 6.17888C23.2087 5.92102 22.859 5.77615 22.4944 5.77615H8.74744C8.01826 5.77615 7.31894 6.06588 6.80333 6.58161C6.28771 7.09733 5.99805 7.79681 5.99805 8.52615M5.99805 8.52615C5.99805 9.2555 6.28771 9.95497 6.80333 10.4707C7.31894 10.9864 8.01826 11.2762 8.74744 11.2762H25.2438C25.6084 11.2762 25.9581 11.421 26.2159 11.6789C26.4737 11.9367 26.6185 12.2865 26.6185 12.6512V16.7762M5.99805 8.52615V25.0262C5.99805 25.7555 6.28771 26.455 6.80333 26.9707C7.31894 27.4864 8.01826 27.7762 8.74744 27.7762H25.2438C25.6084 27.7762 25.9581 27.6313 26.2159 27.3734C26.4737 27.1156 26.6185 26.7658 26.6185 26.4012V22.2762" stroke="white" stroke-width="2.4" stroke-linecap="round" stroke-linejoin="round"/>
<path d="M27.9943 16.7761V22.2761H22.4955C21.7663 22.2761 21.067 21.9864 20.5514 21.4707C20.0358 20.955 19.7461 20.2555 19.7461 19.5261C19.7461 18.7968 20.0358 18.0973 20.5514 17.5816C21.067 17.0659 21.7663 16.7761 22.4955 16.7761H27.9943Z" stroke="white" stroke-width="1.2" stroke-linecap="round" stroke-linejoin="round"/>
</svg>
