<svg width="20" height="20" viewBox="0 0 20 20" fill="none" xmlns="http://www.w3.org/2000/svg">
<g clip-path="url(#clip0_52166_881)">
<path d="M6.79639 6.87474C6.79639 7.72413 7.1338 8.53873 7.73441 9.13934C8.33502 9.73995 9.14962 10.0774 9.99901 10.0774C10.8484 10.0774 11.663 9.73995 12.2636 9.13934C12.8642 8.53873 13.2016 7.72413 13.2016 6.87474C13.2016 6.02535 12.8642 5.21075 12.2636 4.61015C11.663 4.00954 10.8484 3.67212 9.99901 3.67212C9.14962 3.67212 8.33502 4.00954 7.73441 4.61015C7.1338 5.21075 6.79639 6.02535 6.79639 6.87474Z" stroke="#29273A" stroke-width="1.25" stroke-linecap="round" stroke-linejoin="round"/>
<path d="M3.77295 16.3215C4.03718 15.442 4.57784 14.6712 5.31474 14.1234C6.05164 13.5755 6.94552 13.2798 7.86377 13.28H12.1339C13.0534 13.2797 13.9483 13.5762 14.6858 14.1253C15.4232 14.6744 15.9637 15.4469 16.2269 16.3279" stroke="#29273A" stroke-width="1.25" stroke-linecap="round" stroke-linejoin="round"/>
</g>
<defs>
<clipPath id="clip0_52166_881">
<rect width="20" height="20" fill="white"/>
</clipPath>
</defs>
</svg>
