<svg width="32" height="33" viewBox="0 0 32 33" fill="none" xmlns="http://www.w3.org/2000/svg">
<path d="M1.33398 28.9851V28.9851C1.33398 26.3197 3.49398 24.1597 6.15932 24.1597H10.9847C13.65 24.1597 15.81 26.3197 15.81 28.9851V28.9851" stroke="#43641A" stroke-width="1.5" stroke-linecap="round" stroke-linejoin="round"/>
<path d="M11.5581 13.3325C13.2072 14.9816 13.2072 17.6552 11.5581 19.3043C9.90909 20.9533 7.23545 20.9533 5.5864 19.3043C3.93735 17.6552 3.93735 14.9816 5.5864 13.3325C7.23545 11.6835 9.90909 11.6835 11.5581 13.3325" stroke="#43641A" stroke-width="1.5" stroke-linecap="round" stroke-linejoin="round"/>
<path d="M24.1285 19.3958C27.7392 19.3958 30.6672 16.4678 30.6672 12.8571C30.6672 9.24642 27.7405 6.31842 24.1285 6.31842C20.5165 6.31842 17.5898 9.24642 17.5898 12.8571" stroke="#43641A" stroke-width="1.5" stroke-linecap="round" stroke-linejoin="round"/>
<path d="M24.1348 19.4024C23.1508 19.4024 22.2188 19.1851 21.3814 18.7971L17.3574 19.6518L18.1988 15.6198C17.8081 14.7798 17.5894 13.8438 17.5894 12.8571" stroke="#43641A" stroke-width="1.5" stroke-linecap="round" stroke-linejoin="round"/>
<path d="M21.0849 12.9379C21.1109 12.964 21.1109 13.0062 21.0849 13.0322C21.0589 13.0583 21.0167 13.0583 20.9906 13.0322C20.9646 13.0062 20.9646 12.964 20.9906 12.9379C21.0167 12.9119 21.0589 12.9119 21.0849 12.9379" stroke="#43641A" stroke-width="1.5" stroke-linecap="round" stroke-linejoin="round"/>
<path d="M24.0849 12.9379C24.1109 12.964 24.1109 13.0062 24.0849 13.0322C24.0589 13.0583 24.0167 13.0583 23.9906 13.0322C23.9646 13.0062 23.9646 12.964 23.9906 12.9379C24.0167 12.9119 24.0589 12.9119 24.0849 12.9379" stroke="#43641A" stroke-width="1.5" stroke-linecap="round" stroke-linejoin="round"/>
<path d="M27.0849 12.9379C27.1109 12.964 27.1109 13.0062 27.0849 13.0322C27.0589 13.0583 27.0167 13.0583 26.9906 13.0322C26.9646 13.0062 26.9646 12.964 26.9906 12.9379C27.0167 12.9119 27.0589 12.9119 27.0849 12.9379" stroke="#43641A" stroke-width="1.5" stroke-linecap="round" stroke-linejoin="round"/>
</svg>
