<svg width="32" height="33" viewBox="0 0 32 33" fill="none" xmlns="http://www.w3.org/2000/svg">
<path fill-rule="evenodd" clip-rule="evenodd" d="M8 28.9851H5.33333C4.59733 28.9851 4 28.3878 4 27.6518V19.6518C4 18.9158 4.59733 18.3184 5.33333 18.3184H8C8.736 18.3184 9.33333 18.9158 9.33333 19.6518V27.6518C9.33333 28.3878 8.736 28.9851 8 28.9851Z" stroke="#43641A" stroke-width="1.5" stroke-linecap="round" stroke-linejoin="round"/>
<path d="M17.334 23.6518H20.4447C21.022 23.6518 21.5833 23.4651 22.0447 23.1184L25.266 20.7024C26.07 20.0998 27.1953 20.1798 27.906 20.8904V20.8904C28.6953 21.6798 28.6953 22.9584 27.906 23.7464L25.142 26.5104C24.398 27.2544 23.4487 27.7624 22.4167 27.9691L18.51 28.7504C17.7353 28.9051 16.9367 28.8864 16.17 28.6944L12.6367 27.8118C12.214 27.7051 11.7807 27.6518 11.3447 27.6518H9.33398" stroke="#43641A" stroke-width="1.5" stroke-linecap="round" stroke-linejoin="round"/>
<path d="M17.334 23.6518H19.314C20.43 23.6518 21.334 22.7478 21.334 21.6318V21.2278C21.334 20.3011 20.7033 19.4931 19.8047 19.2691L16.7487 18.5051C16.2513 18.3811 15.742 18.3184 15.23 18.3184V18.3184C13.994 18.3184 12.7847 18.6838 11.7567 19.3704L9.33398 20.9851" stroke="#43641A" stroke-width="1.5" stroke-linecap="round" stroke-linejoin="round"/>
<path d="M22.8913 7.85871C24.3691 9.33645 24.3691 11.7323 22.8913 13.2101C21.4136 14.6878 19.0177 14.6878 17.54 13.2101C16.0622 11.7323 16.0622 9.33645 17.54 7.85871C19.0177 6.38096 21.4136 6.38096 22.8913 7.85871" stroke="#43641A" stroke-width="1.5" stroke-linecap="round" stroke-linejoin="round"/>
<path d="M19.508 6.8184C19.384 6.06507 19.04 5.34107 18.4587 4.75973C16.9813 3.2824 14.5853 3.2824 13.108 4.75973C11.6307 6.23707 11.6307 8.63307 13.108 10.1104C14.028 11.0304 15.3027 11.3757 16.4907 11.1504" stroke="#43641A" stroke-width="1.5" stroke-linecap="round" stroke-linejoin="round"/>
</svg>
