<svg width="33" height="33" viewBox="0 0 33 33" fill="none" xmlns="http://www.w3.org/2000/svg">
<g clip-path="url(#clip0_52388_1201)">
<path d="M19.166 4.98511V10.3184C19.166 10.6721 19.3065 11.0112 19.5565 11.2612C19.8066 11.5113 20.1457 11.6518 20.4993 11.6518H25.8327" stroke="#43641A" stroke-width="1.5" stroke-linecap="round" stroke-linejoin="round"/>
<path d="M23.166 28.9851H9.83268C9.12544 28.9851 8.44716 28.7042 7.94706 28.2041C7.44697 27.704 7.16602 27.0257 7.16602 26.3184V7.65177C7.16602 6.94453 7.44697 6.26625 7.94706 5.76616C8.44716 5.26606 9.12544 4.98511 9.83268 4.98511H19.166L25.8327 11.6518V26.3184C25.8327 27.0257 25.5517 27.704 25.0516 28.2041C24.5515 28.7042 23.8733 28.9851 23.166 28.9851Z" stroke="#43641A" stroke-width="1.5" stroke-linecap="round" stroke-linejoin="round"/>
<path d="M11.166 15.6518H21.8327V24.9851H11.166V15.6518Z" stroke="#43641A" stroke-width="1.5" stroke-linecap="round" stroke-linejoin="round"/>
<path d="M11.166 20.9851H21.8327" stroke="#43641A" stroke-width="1.5" stroke-linecap="round" stroke-linejoin="round"/>
<path d="M15.166 15.6518V24.9851" stroke="#43641A" stroke-width="1.5" stroke-linecap="round" stroke-linejoin="round"/>
</g>
<defs>
<clipPath id="clip0_52388_1201">
<rect width="32" height="32" fill="white" transform="translate(0.5 0.985107)"/>
</clipPath>
</defs>
</svg>
