<svg width="33" height="32" viewBox="0 0 33 32" fill="none" xmlns="http://www.w3.org/2000/svg">
<path d="M4.5 8.66719C4.5 7.56262 5.39543 6.66719 6.5 6.66719H26.5C27.6046 6.66719 28.5 7.56262 28.5 8.66719V24.6672C28.5 25.7718 27.6046 26.6672 26.5 26.6672H6.5C5.39543 26.6672 4.5 25.7718 4.5 24.6672V8.66719Z" stroke="#29273A" stroke-width="1.5" stroke-linecap="round" stroke-linejoin="round"/>
<path d="M12.5 20.3202V13.014C12.5 12.2367 13.4305 11.749 14.1785 12.135L21.2676 15.7886C21.4394 15.8771 21.5823 16.005 21.6816 16.1593C21.781 16.3137 21.8333 16.489 21.8333 16.6675C21.8333 16.846 21.781 17.0214 21.6816 17.1757C21.5823 17.3301 21.4394 17.458 21.2676 17.5465L14.1785 21.2001C14.0078 21.288 13.8145 21.334 13.6178 21.3333C13.4212 21.3327 13.2283 21.2854 13.0583 21.1963C12.8883 21.1072 12.7472 20.9794 12.6492 20.8256C12.5513 20.6718 12.4998 20.4975 12.5 20.3202Z" stroke="#29273A" stroke-width="1.5" stroke-linecap="round" stroke-linejoin="round"/>
</svg>
