<svg width="21" height="18" viewBox="0 0 21 18" fill="none" xmlns="http://www.w3.org/2000/svg">
    <path
        d="M15.7 17.025C15.5667 17.025 15.4333 17.0083 15.3 16.975C15.1667 16.9417 15.0417 16.8833 14.925 16.8L11.925 15.05C11.6917 14.9167 11.5125 14.7375 11.3875 14.5125C11.2625 14.2875 11.2 14.0417 11.2 13.775V10.25C11.2 9.98333 11.2625 9.7375 11.3875 9.5125C11.5125 9.2875 11.6917 9.10833 11.925 8.975L14.925 7.225C15.0417 7.14167 15.1667 7.08333 15.3 7.05C15.4333 7.01667 15.5667 7 15.7 7C15.8333 7 15.9625 7.02083 16.0875 7.0625C16.2125 7.10417 16.3333 7.15833 16.45 7.225L19.45 8.975C19.6833 9.10833 19.8667 9.2875 20 9.5125C20.1333 9.7375 20.2 9.98333 20.2 10.25V13.775C20.2 14.0417 20.1333 14.2875 20 14.5125C19.8667 14.7375 19.6833 14.9167 19.45 15.05L16.45 16.8C16.3333 16.8667 16.2125 16.9208 16.0875 16.9625C15.9625 17.0042 15.8333 17.025 15.7 17.025ZM8.69999 8C7.59999 8 6.65832 7.60833 5.87499 6.825C5.09166 6.04167 4.69999 5.1 4.69999 4C4.69999 2.9 5.09166 1.95833 5.87499 1.175C6.65832 0.391667 7.59999 0 8.69999 0C9.79999 0 10.7417 0.391667 11.525 1.175C12.3083 1.95833 12.7 2.9 12.7 4C12.7 5.1 12.3083 6.04167 11.525 6.825C10.7417 7.60833 9.79999 8 8.69999 8ZM0.699989 16V13.2C0.699989 12.65 0.841656 12.1333 1.12499 11.65C1.40832 11.1667 1.79999 10.8 2.29999 10.55C3.14999 10.1167 4.10832 9.75 5.17499 9.45C6.24166 9.15 7.41666 9 8.69999 9H9.04999C9.14999 9 9.24999 9.01667 9.34999 9.05C9.21666 9.35 9.10416 9.6625 9.01249 9.9875C8.92082 10.3125 8.84999 10.65 8.79999 11H8.69999C7.51666 11 6.45416 11.15 5.51249 11.45C4.57082 11.75 3.79999 12.05 3.19999 12.35C3.04999 12.4333 2.92916 12.55 2.83749 12.7C2.74582 12.85 2.69999 13.0167 2.69999 13.2V14H8.99999C9.09999 14.35 9.23332 14.6958 9.39999 15.0375C9.56666 15.3792 9.74999 15.7 9.94999 16H0.699989ZM8.69999 6C9.24999 6 9.72082 5.80417 10.1125 5.4125C10.5042 5.02083 10.7 4.55 10.7 4C10.7 3.45 10.5042 2.97917 10.1125 2.5875C9.72082 2.19583 9.24999 2 8.69999 2C8.14999 2 7.67916 2.19583 7.28749 2.5875C6.89582 2.97917 6.69999 3.45 6.69999 4C6.69999 4.55 6.89582 5.02083 7.28749 5.4125C7.67916 5.80417 8.14999 6 8.69999 6ZM13.35 9.85L15.7 11.225L18.05 9.85L15.7 8.5L13.35 9.85ZM16.45 15.05L18.7 13.75V11L16.45 12.325V15.05ZM12.7 13.75L14.95 15.075V12.35L12.7 11.025V13.75Z"
        fill="#ffffff" />
</svg>
