<svg width="20" height="20" viewBox="0 0 20 20" fill="none" xmlns="http://www.w3.org/2000/svg">
<g clip-path="url(#clip0_52166_713)">
<path d="M10.093 14.8406C10.0347 14.8099 9.96501 14.8099 9.90668 14.8405L5.21524 17.3071C5.06852 17.3843 4.89702 17.2597 4.92505 17.0963L5.82124 11.8719C5.83238 11.807 5.81082 11.7408 5.76362 11.6948L1.96314 7.99542C1.84429 7.87973 1.90981 7.67797 2.07396 7.65418L7.31826 6.89413C7.38343 6.88469 7.43977 6.84377 7.46892 6.78471L9.81468 2.03162C9.88804 1.88297 10.1 1.88297 10.1734 2.03162L12.5191 6.78471C12.5483 6.84377 12.6046 6.88469 12.6698 6.89413L17.9141 7.65418C18.0783 7.67797 18.1438 7.87973 18.0249 7.99542L14.2244 11.6948C14.1772 11.7408 14.1557 11.807 14.1668 11.8719L15.0629 17.0958C15.091 17.2593 14.9193 17.3839 14.7726 17.3066L10.093 14.8406Z" stroke="#29273A" stroke-width="1.25" stroke-linecap="round" stroke-linejoin="round"/>
</g>
<defs>
<clipPath id="clip0_52166_713">
<rect width="20" height="20" fill="white"/>
</clipPath>
</defs>
</svg>
