<svg width="20" height="20" viewBox="0 0 20 20" fill="none" xmlns="http://www.w3.org/2000/svg">
<g clip-path="url(#clip0_52166_1880)">
<path d="M9.86642 2.61611C9.94326 2.55051 10.0568 2.55051 10.1336 2.61611C12.0223 4.22842 14.4439 5.08056 16.9265 5.00595C17.0186 5.00318 17.1018 5.06212 17.1264 5.15091C17.47 6.39114 17.571 7.68654 17.4235 8.96598C17.2699 10.2974 16.8503 11.5844 16.1895 12.7504C15.5288 13.9165 14.6404 14.9378 13.5771 15.7537C12.5275 16.5591 11.3287 17.1481 10.0502 17.4868C10.0173 17.4956 9.98272 17.4956 9.94984 17.4868C8.67133 17.1481 7.47254 16.5591 6.42298 15.7537C5.3597 14.9378 4.47128 13.9165 3.81052 12.7504C3.14976 11.5844 2.73014 10.2974 2.57659 8.96598C2.42903 7.68654 2.53008 6.39114 2.87361 5.15091C2.89821 5.06212 2.98149 5.00318 3.07358 5.00595C5.55618 5.08056 7.97778 4.22842 9.86642 2.61611Z" stroke="#29273A" stroke-width="1.25" stroke-linecap="round" stroke-linejoin="round"/>
<path d="M7 10L8.85858 11.8586C8.93668 11.9367 9.06332 11.9367 9.14142 11.8586L13 8" stroke="#29273A" stroke-width="1.25" stroke-linecap="round" stroke-linejoin="round"/>
</g>
<defs>
<clipPath id="clip0_52166_1880">
<rect width="20" height="20" fill="white"/>
</clipPath>
</defs>
</svg>
