<svg width="25" height="24" viewBox="0 0 25 24" fill="none" xmlns="http://www.w3.org/2000/svg">
    <path d="M18.6 10V9.5C18.6 5.91 15.69 3 12.1 3V3C8.50998 3 5.59998 5.91 5.59998 9.5V10"
        stroke="#ffffff" stroke-width="1.5" stroke-linecap="round" stroke-linejoin="round" />
    <path fill-rule="evenodd" clip-rule="evenodd"
        d="M12.725 21.25H11.475C10.785 21.25 10.225 20.69 10.225 20V20C10.225 19.31 10.785 18.75 11.475 18.75H12.725C13.415 18.75 13.975 19.31 13.975 20V20C13.975 20.69 13.415 21.25 12.725 21.25Z"
        stroke="#ffffff" stroke-width="1.5" stroke-linecap="round" stroke-linejoin="round" />
    <path d="M13.975 20H16.1C17.205 20 18.1 19.105 18.1 18V17" stroke="#ffffff" stroke-width="1.5"
        stroke-linecap="round" stroke-linejoin="round" />
    <path fill-rule="evenodd" clip-rule="evenodd"
        d="M19.1 17H18.1C17.548 17 17.1 16.552 17.1 16V11C17.1 10.448 17.548 10 18.1 10H19.1C20.205 10 21.1 10.895 21.1 12V15C21.1 16.105 20.205 17 19.1 17Z"
        stroke="#ffffff" stroke-width="1.5" stroke-linecap="round" stroke-linejoin="round" />
    <path fill-rule="evenodd" clip-rule="evenodd"
        d="M6.10001 17H5.10001C3.99501 17 3.10001 16.105 3.10001 15V12C3.10001 10.895 3.99501 10 5.10001 10H6.10001C6.65201 10 7.10001 10.448 7.10001 11V16C7.10001 16.552 6.65201 17 6.10001 17Z"
        stroke="#ffffff" stroke-width="1.5" stroke-linecap="round" stroke-linejoin="round" />
</svg>
