<svg width="24" height="25" viewBox="0 0 24 25" fill="none" xmlns="http://www.w3.org/2000/svg">
<g clip-path="url(#clip0_52886_1783)">
<path d="M6.5 7.92902C6.5 8.19423 6.60536 8.44859 6.79289 8.63612C6.98043 8.82366 7.23478 8.92902 7.5 8.92902C7.76522 8.92902 8.01957 8.82366 8.20711 8.63612C8.39464 8.44859 8.5 8.19423 8.5 7.92902C8.5 7.6638 8.39464 7.40945 8.20711 7.22191C8.01957 7.03437 7.76522 6.92902 7.5 6.92902C7.23478 6.92902 6.98043 7.03437 6.79289 7.22191C6.60536 7.40945 6.5 7.6638 6.5 7.92902Z" stroke="#107C41" stroke-width="1.5" stroke-linecap="round" stroke-linejoin="round"/>
<path d="M3 6.42902V11.601C3.00011 12.1314 3.2109 12.64 3.586 13.015L11.296 20.725C11.748 21.1769 12.3609 21.4308 13 21.4308C13.6391 21.4308 14.252 21.1769 14.704 20.725L20.296 15.133C20.7479 14.6811 21.0017 14.0681 21.0017 13.429C21.0017 12.7899 20.7479 12.177 20.296 11.725L12.586 4.01502C12.211 3.63992 11.7024 3.42913 11.172 3.42902H6C5.20435 3.42902 4.44129 3.74509 3.87868 4.3077C3.31607 4.87031 3 5.63337 3 6.42902Z" stroke="#107C41" stroke-width="1.5" stroke-linecap="round" stroke-linejoin="round"/>
</g>
<defs>
<clipPath id="clip0_52886_1783">
<rect width="24" height="24" fill="white" transform="translate(0 0.429016)"/>
</clipPath>
</defs>
</svg>
