<svg width="24" height="25" viewBox="0 0 24 25" fill="none" xmlns="http://www.w3.org/2000/svg">
    <path
        d="M5.1 21.2351C4.15 20.3184 3.39583 19.2392 2.8375 17.9976C2.27917 16.7559 2 15.4184 2 13.9851C2 12.6017 2.2625 11.3017 2.7875 10.0851C3.3125 8.86841 4.025 7.81008 4.925 6.91008C5.825 6.01008 6.88333 5.29758 8.1 4.77258C9.31667 4.24758 10.6167 3.98508 12 3.98508C13.3833 3.98508 14.6833 4.24758 15.9 4.77258C17.1167 5.29758 18.175 6.01008 19.075 6.91008C19.975 7.81008 20.6875 8.86841 21.2125 10.0851C21.7375 11.3017 22 12.6017 22 13.9851C22 15.4184 21.7208 16.7601 21.1625 18.0101C20.6042 19.2601 19.85 20.3351 18.9 21.2351L17.5 19.8351C18.2667 19.1017 18.875 18.2309 19.325 17.2226C19.775 16.2142 20 15.1351 20 13.9851C20 11.7517 19.225 9.86008 17.675 8.31008C16.125 6.76008 14.2333 5.98508 12 5.98508C9.76667 5.98508 7.875 6.76008 6.325 8.31008C4.775 9.86008 4 11.7517 4 13.9851C4 15.1351 4.225 16.2101 4.675 17.2101C5.125 18.2101 5.74167 19.0767 6.525 19.8101L5.1 21.2351ZM7.925 18.4101C7.34167 17.8601 6.875 17.2059 6.525 16.4476C6.175 15.6892 6 14.8684 6 13.9851C6 12.3184 6.58333 10.9017 7.75 9.73508C8.91667 8.56841 10.3333 7.98508 12 7.98508C13.6667 7.98508 15.0833 8.56841 16.25 9.73508C17.4167 10.9017 18 12.3184 18 13.9851C18 14.8684 17.825 15.6934 17.475 16.4601C17.125 17.2267 16.6583 17.8767 16.075 18.4101L14.65 16.9851C15.0667 16.6017 15.3958 16.1517 15.6375 15.6351C15.8792 15.1184 16 14.5684 16 13.9851C16 12.8851 15.6083 11.9434 14.825 11.1601C14.0417 10.3767 13.1 9.98508 12 9.98508C10.9 9.98508 9.95833 10.3767 9.175 11.1601C8.39167 11.9434 8 12.8851 8 13.9851C8 14.5851 8.12083 15.1392 8.3625 15.6476C8.60417 16.1559 8.93333 16.6017 9.35 16.9851L7.925 18.4101ZM12 15.9851C11.45 15.9851 10.9792 15.7892 10.5875 15.3976C10.1958 15.0059 10 14.5351 10 13.9851C10 13.4351 10.1958 12.9642 10.5875 12.5726C10.9792 12.1809 11.45 11.9851 12 11.9851C12.55 11.9851 13.0208 12.1809 13.4125 12.5726C13.8042 12.9642 14 13.4351 14 13.9851C14 14.5351 13.8042 15.0059 13.4125 15.3976C13.0208 15.7892 12.55 15.9851 12 15.9851Z"
        fill="#43641A" />
</svg>
